#!OML:ASF I:\Actors\actors\Patient Classification 2\Patient 1\Session 1\actor1.ASF
:FULLY-SPECIFIED
:DEGREES
275
root -0.736593 18.8565 4.6543 8.33577 -0.871257 -1.50698
lowerback 14.7711 1.70373 -2.86037
upperback 8.1462 1.8732 0.00399411
thorax 0.242836 0.841729 1.34798
lowerneck -17.7477 -3.66072 -5.5553
upperneck 24.5487 -5.08084 5.79654
head 11.1947 -2.0988 2.29669
rclavicle 1.39149e-014 -3.37934e-015
rhumerus 16.6173 22.4649 -86.1775
rradius 51.2612
rwrist 47.8046
rhand -52.8741 -62.6969
rfingers 7.12502
rthumb -25.3451 91.0327
lclavicle 1.39149e-014 -3.37934e-015
lhumerus 16.683 -19.0012 93.2646
lradius 51.6458
lwrist -32.9604
lhand -36.2476 -75.9413
lfingers 7.12502
lthumb -9.34876 -46.1686
rfemur 0 0 0
rtibia 0
rfoot 0 0
rtoes 0
lfemur -15.6362 -7.08345 -11.2184
ltibia 21.9009
lfoot -19.805 17.5629
ltoes -53.9862
276
root -0.741028 18.8588 4.65497 8.41945 -0.857799 -1.46909
lowerback 14.7338 1.66259 -2.96021
upperback 8.1501 1.8084 -0.0136469
thorax 0.267744 0.806318 1.39604
lowerneck -17.9874 -3.60217 -5.38406
upperneck 24.4835 -5.00993 5.70274
head 11.2047 -2.05883 2.24086
rclavicle 1.47101e-014 -1.31198e-014
rhumerus 16.9071 21.8139 -87.1937
rradius 50.5879
rwrist 47.2565
rhand -53.2478 -62.4485
rfingers 7.12502
rthumb -25.7031 90.733
lclavicle 1.47101e-014 -1.31198e-014
lhumerus 16.5706 -18.3744 94.0222
lradius 51.6158
lwrist -31.6099
lhand -35.779 -76.5912
lfingers 7.12502
lthumb -8.89656 -46.7987
rfemur 0 0 0
rtibia 0
rfoot 0 0
rtoes 0
lfemur -15.7275 -7.01974 -11.2393
ltibia 21.877
lfoot -19.7233 17.5777
ltoes -54.0519
277
root -0.744194 18.8613 4.65724 8.50217 -0.799387 -1.47051
lowerback 14.657 1.58676 -3.0326
upperback 8.10433 1.70295 -0.00272719
thorax 0.262711 0.751884 1.46445
lowerneck -18.0987 -3.51688 -5.22066
upperneck 24.3867 -4.90976 5.62897
head 11.1767 -2.00661 2.19916
rclavicle 9.74045e-015 -5.76476e-015
rhumerus 17.0257 21.2291 -88.2393
rradius 49.9869
rwrist 46.8289
rhand -53.4324 -61.2788
rfingers 7.12502
rthumb -25.8798 270.462
lclavicle 9.74045e-015 -5.76476e-015
lhumerus 16.3324 -17.7433 94.661
lradius 51.6293
lwrist -30.3969
lhand -35.3653 -76.7692
lfingers 7.12502
lthumb -8.49732 -46.9601
rfemur 0 0 0
rtibia 0
rfoot 0 0
rtoes 0
lfemur -15.8304 -6.99939 -11.2107
ltibia 21.8639
lfoot -19.6784 17.5463
ltoes -54.0361
278
root -0.747916 18.8639 4.66242 8.53129 -0.749903 -1.50752
lowerback 14.6127 1.53636 -3.02206
upperback 8.05098 1.63981 0.032554
thorax 0.231707 0.721052 1.50466
lowerneck -18.2429 -3.4831 -5.11987
upperneck 24.2708 -4.84328 5.49208
head 11.1504 -1.98267 2.13926
rclavicle -6.36111e-015 1.19271e-015
rhumerus 17.0063 20.6018 -89.1382
rradius 49.5354
rwrist 46.4012
rhand -53.536 -59.0121
rfingers 7.12502
rthumb -25.9791 272.744
lclavicle -6.36111e-015 1.19271e-015
lhumerus 16.2359 -17.0864 95.3203
lradius 51.3239
lwrist -30.0864
lhand -35.5458 -75.9749
lfingers 7.12502
lthumb -8.67154 -46.173
rfemur 0 0 0
rtibia 0
rfoot 0 0
rtoes 0
lfemur -15.8644 -6.988 -11.1469
ltibia 21.8709
lfoot -19.6901 17.4723
ltoes -53.9336
279
root -0.75179 18.8649 4.67144 8.5136 -0.718807 -1.56639
lowerback 14.5685 1.5315 -2.9465
upperback 8.0018 1.64448 0.0932835
thorax 0.202497 0.725413 1.52517
lowerneck -18.4961 -3.52357 -5.16839
upperneck 24.2406 -4.84842 5.4037
head 11.1877 -1.99633 2.11143
rclavicle -5.76476e-015 -1.78906e-015
rhumerus 16.9261 20.2398 -89.5461
rradius 49.2202
rwrist 45.8552
rhand -53.407 -57.1514
rfingers 7.12502
rthumb -25.8556 274.586
lclavicle -5.76476e-015 -1.78906e-015
lhumerus 16.2961 -16.9477 95.729
lradius 51.1388
lwrist -29.3208
lhand -35.7463 -74.6477
lfingers 7.12502
lthumb -8.86494 -44.854
rfemur 0 0 0
rtibia 0
rfoot 0 0
rtoes 0
lfemur -15.8357 -7.00439 -11.0712
ltibia 21.8956
lfoot -19.7196 17.4433
ltoes -53.9252
280
root -0.753853 18.8645 4.68333 8.48027 -0.652248 -1.62301
lowerback 14.5029 1.51436 -2.85215
upperback 7.89139 1.6356 0.165944
thorax 0.120432 0.72475 1.54909
lowerneck -18.6765 -3.56089 -5.35089
upperneck 24.2895 -4.86104 5.48268
head 11.2496 -2.00588 2.16814
rclavicle 0 -5.96354e-016
rhumerus 16.7544 20.4624 -89.3777
rradius 49.1505
rwrist 44.4952
rhand -52.9069 -55.7845
rfingers 7.12502
rthumb -25.3765 275.884
lclavicle 0 -5.96354e-016
lhumerus 16.1971 -17.3586 95.6762
lradius 51.4154
lwrist -28.0614
lhand -35.7043 -73.9728
lfingers 7.12502
lthumb -8.82442 -44.1773
rfemur 0 0 0
rtibia 0
rfoot 0 0
rtoes 0
lfemur -15.7861 -7.02175 -11.0081
ltibia 21.9191
lfoot -19.7185 17.4158
ltoes -53.972
281
root -0.754518 18.8645 4.69822 8.43196 -0.55197 -1.64537
lowerback 14.4234 1.46838 -2.75312
upperback 7.67669 1.58822 0.194735
thorax -0.0613167 0.708277 1.529
lowerneck -18.6643 -3.57132 -5.51118
upperneck 24.4068 -4.891 5.6893
head 11.3038 -2.00834 2.26829
rclavicle 1.98785e-016 -3.77691e-015
rhumerus 16.3419 21.1799 -88.8264
rradius 49.5565
rwrist 42.1045
rhand -52.1416 -54.5681
rfingers 7.12502
rthumb -24.6432 276.999
lclavicle 1.98785e-016 -3.77691e-015
lhumerus 15.8541 -17.9605 95.1634
lradius 51.8771
lwrist -27.3113
lhand -34.9559 -71.8111
lfingers 7.12502
lthumb -8.10223 -41.9865
rfemur 0 0 0
rtibia 0
rfoot 0 0
rtoes 0
lfemur -15.7108 -7.03206 -10.9875
ltibia 21.9348
lfoot -19.7047 17.3172
ltoes -53.9395
282
root -0.754253 18.8641 4.71746 8.35829 -0.463499 -1.64643
lowerback 14.2696 1.40625 -2.66686
upperback 7.41995 1.51946 0.186855
thorax -0.24613 0.681726 1.48187
lowerneck -18.4467 -3.53884 -5.38251
upperneck 24.4379 -4.88686 5.6496
head 11.2678 -2.00322 2.2349
rclavicle -3.8763e-015 -5.96354e-016
rhumerus 15.6747 22.2505 -88.0069
rradius 50.3767
rwrist 39.6987
rhand -51.5341 -53.7046
rfingers 7.12502
rthumb -24.0608 277.784
lclavicle -3.8763e-015 -5.96354e-016
lhumerus 15.4341 -19.0296 94.0928
lradius 52.7168
lwrist -26.4896
lhand -34.0313 -69.1956
lfingers 7.12502
lthumb -7.20975 -39.3385
rfemur 0 0 0
rtibia 0
rfoot 0 0
rtoes 0
lfemur -15.5909 -7.04097 -11.003
ltibia 21.9512
lfoot -19.7127 17.2384
ltoes -53.9684
283
root -0.7529 18.8624 4.74076 8.24857 -0.373195 -1.64261
lowerback 14.0323 1.34755 -2.53943
upperback 7.20907 1.46294 0.165415
thorax -0.337287 0.660728 1.39779
lowerneck -18.2017 -3.48608 -5.0335
upperneck 24.3064 -4.83093 5.31344
head 11.1474 -1.99227 2.06172
rclavicle 1.05356e-014 -2.5842e-015
rhumerus 14.9066 22.578 -87.2265
rradius 51.7932
rwrist 40.6222
rhand -48.9954 -53.2538
rfingers 7.12502
rthumb -21.6246 277.934
lclavicle 1.05356e-014 -2.5842e-015
lhumerus 15.1472 -20.6093 92.551
lradius 53.8639
lwrist -25.2584
lhand -32.9892 -65.7856
lfingers 7.12502
lthumb -6.20379 -35.8964
rfemur 0 0 0
rtibia 0
rfoot 0 0
rtoes 0
lfemur -15.421 -7.06389 -11.0362
ltibia 21.9703
lfoot -19.7466 17.2191
ltoes -54.0935
